<mxfile host="app.diagrams.net" modified="2021-09-22T04:55:06.431Z" agent="5.0 (Windows NT 10.0; Win64; x64) AppleWebKit/537.36 (KHTML, like Gecko) Chrome/93.0.4577.82 Safari/537.36 Edg/93.0.961.52" etag="rQB2xzobyidFd2OGrjUc" version="15.2.9" type="github">
  <diagram id="kgpKYQtTHZ0yAKxKKP6v" name="Page-1">
    <mxGraphModel dx="3245" dy="1158" grid="1" gridSize="10" guides="1" tooltips="1" connect="1" arrows="1" fold="1" page="1" pageScale="1" pageWidth="1169" pageHeight="827" math="0" shadow="0">
      <root>
        <mxCell id="0" />
        <mxCell id="1" parent="0" />
        <mxCell id="3nuBFxr9cyL0pnOWT2aG-14" value="End" style="rounded=1;whiteSpace=wrap;html=1;arcSize=50;" parent="1" vertex="1">
          <mxGeometry x="-100" y="750" width="90" height="40" as="geometry" />
        </mxCell>
        <mxCell id="INr4YLjgiFo9XIjywEUX-49" value="" style="edgeStyle=orthogonalEdgeStyle;rounded=0;orthogonalLoop=1;jettySize=auto;html=1;" edge="1" parent="1" source="3nuBFxr9cyL0pnOWT2aG-22" target="3nuBFxr9cyL0pnOWT2aG-14">
          <mxGeometry relative="1" as="geometry" />
        </mxCell>
        <mxCell id="3nuBFxr9cyL0pnOWT2aG-1" value="Serial Range" style="shape=table;childLayout=tableLayout;rowLines=0;columnLines=0;startSize=40;html=1;whiteSpace=wrap;collapsible=0;recursiveResize=0;expand=0;fontStyle=0" parent="1" vertex="1">
          <mxGeometry x="-1150" y="130" width="1040" height="583" as="geometry" />
        </mxCell>
        <object label="Serial Pool" id="INr4YLjgiFo9XIjywEUX-22">
          <mxCell style="swimlane;horizontal=0;points=[[0,0.5],[1,0.5]];portConstraint=eastwest;startSize=40;html=1;whiteSpace=wrap;collapsible=0;recursiveResize=0;expand=0;" vertex="1" parent="3nuBFxr9cyL0pnOWT2aG-1">
            <mxGeometry y="40" width="1040" height="170" as="geometry" />
          </mxCell>
        </object>
        <mxCell id="INr4YLjgiFo9XIjywEUX-23" value="" style="swimlane;connectable=0;startSize=40;html=1;whiteSpace=wrap;collapsible=0;recursiveResize=0;expand=0;" vertex="1" parent="INr4YLjgiFo9XIjywEUX-22">
          <mxGeometry x="40" width="369" height="170" as="geometry">
            <mxRectangle width="369" height="170" as="alternateBounds" />
          </mxGeometry>
        </mxCell>
        <mxCell id="INr4YLjgiFo9XIjywEUX-37" value="Serve available Serial range for SO" style="rounded=0;whiteSpace=wrap;html=1;" vertex="1" parent="INr4YLjgiFo9XIjywEUX-23">
          <mxGeometry x="194" y="50" width="152" height="80" as="geometry" />
        </mxCell>
        <mxCell id="INr4YLjgiFo9XIjywEUX-31" value="" style="swimlane;connectable=0;startSize=40;html=1;whiteSpace=wrap;collapsible=0;recursiveResize=0;expand=0;" vertex="1" parent="INr4YLjgiFo9XIjywEUX-22">
          <mxGeometry x="409" width="425" height="170" as="geometry">
            <mxRectangle width="425" height="170" as="alternateBounds" />
          </mxGeometry>
        </mxCell>
        <mxCell id="3nuBFxr9cyL0pnOWT2aG-10" value="Make the serial is used" style="rounded=0;whiteSpace=wrap;html=1;" parent="INr4YLjgiFo9XIjywEUX-31" vertex="1">
          <mxGeometry x="122" y="70" width="160" height="50" as="geometry" />
        </mxCell>
        <mxCell id="INr4YLjgiFo9XIjywEUX-34" value="" style="swimlane;connectable=0;startSize=40;html=1;whiteSpace=wrap;collapsible=0;recursiveResize=0;expand=0;" vertex="1" parent="INr4YLjgiFo9XIjywEUX-22">
          <mxGeometry x="834" width="206" height="170" as="geometry">
            <mxRectangle width="206" height="170" as="alternateBounds" />
          </mxGeometry>
        </mxCell>
        <object label="Barcode Generation&lt;br&gt;" id="3nuBFxr9cyL0pnOWT2aG-3">
          <mxCell style="swimlane;horizontal=0;points=[[0,0.5],[1,0.5]];portConstraint=eastwest;startSize=40;html=1;whiteSpace=wrap;collapsible=0;recursiveResize=0;expand=0;" parent="3nuBFxr9cyL0pnOWT2aG-1" vertex="1">
            <mxGeometry y="210" width="1040" height="258" as="geometry" />
          </mxCell>
        </object>
        <mxCell id="3nuBFxr9cyL0pnOWT2aG-4" value="Planning" style="swimlane;connectable=0;startSize=40;html=1;whiteSpace=wrap;collapsible=0;recursiveResize=0;expand=0;" parent="3nuBFxr9cyL0pnOWT2aG-3" vertex="1">
          <mxGeometry x="40" width="369" height="258" as="geometry">
            <mxRectangle width="369" height="258" as="alternateBounds" />
          </mxGeometry>
        </mxCell>
        <mxCell id="3nuBFxr9cyL0pnOWT2aG-7" value="Create SO" style="rounded=0;whiteSpace=wrap;html=1;" parent="3nuBFxr9cyL0pnOWT2aG-4" vertex="1">
          <mxGeometry x="53" y="120" width="90" height="40" as="geometry" />
        </mxCell>
        <mxCell id="INr4YLjgiFo9XIjywEUX-16" value="Map Serial Range to SO" style="rounded=0;whiteSpace=wrap;html=1;" vertex="1" parent="3nuBFxr9cyL0pnOWT2aG-4">
          <mxGeometry x="53" y="180" width="90" height="40" as="geometry" />
        </mxCell>
        <mxCell id="INr4YLjgiFo9XIjywEUX-15" style="edgeStyle=orthogonalEdgeStyle;rounded=0;orthogonalLoop=1;jettySize=auto;html=1;" edge="1" parent="3nuBFxr9cyL0pnOWT2aG-4" source="3nuBFxr9cyL0pnOWT2aG-7" target="INr4YLjgiFo9XIjywEUX-16">
          <mxGeometry relative="1" as="geometry">
            <mxPoint x="65" y="230" as="targetPoint" />
          </mxGeometry>
        </mxCell>
        <mxCell id="3nuBFxr9cyL0pnOWT2aG-8" value="Warehouse" style="swimlane;connectable=0;startSize=40;html=1;whiteSpace=wrap;collapsible=0;recursiveResize=0;expand=0;" parent="3nuBFxr9cyL0pnOWT2aG-3" vertex="1">
          <mxGeometry x="409" width="425" height="258" as="geometry">
            <mxRectangle width="425" height="258" as="alternateBounds" />
          </mxGeometry>
        </mxCell>
        <mxCell id="3nuBFxr9cyL0pnOWT2aG-9" value="Print the label by choosing the SO" style="rounded=0;whiteSpace=wrap;html=1;" parent="3nuBFxr9cyL0pnOWT2aG-8" vertex="1">
          <mxGeometry x="99" y="74" width="206" height="60" as="geometry" />
        </mxCell>
        <mxCell id="3nuBFxr9cyL0pnOWT2aG-11" value="Production" style="swimlane;connectable=0;startSize=40;html=1;whiteSpace=wrap;collapsible=0;recursiveResize=0;expand=0;" parent="3nuBFxr9cyL0pnOWT2aG-3" vertex="1">
          <mxGeometry x="834" width="206" height="258" as="geometry">
            <mxRectangle width="206" height="258" as="alternateBounds" />
          </mxGeometry>
        </mxCell>
        <mxCell id="3nuBFxr9cyL0pnOWT2aG-15" value="Barcode Using" style="swimlane;horizontal=0;points=[[0,0.5],[1,0.5]];portConstraint=eastwest;startSize=40;html=1;whiteSpace=wrap;collapsible=0;recursiveResize=0;expand=0;" parent="3nuBFxr9cyL0pnOWT2aG-1" vertex="1">
          <mxGeometry y="468" width="1040" height="115" as="geometry" />
        </mxCell>
        <mxCell id="3nuBFxr9cyL0pnOWT2aG-16" value="" style="swimlane;connectable=0;startSize=0;html=1;whiteSpace=wrap;collapsible=0;recursiveResize=0;expand=0;" parent="3nuBFxr9cyL0pnOWT2aG-15" vertex="1">
          <mxGeometry x="40" width="369" height="115" as="geometry">
            <mxRectangle width="369" height="115" as="alternateBounds" />
          </mxGeometry>
        </mxCell>
        <mxCell id="INr4YLjgiFo9XIjywEUX-51" value="" style="endArrow=none;html=1;exitX=1;exitY=0.5;exitDx=0;exitDy=0;rounded=0;fillColor=#d5e8d4;strokeColor=#82b366;startArrow=none;startFill=0;endFill=0;" edge="1" parent="3nuBFxr9cyL0pnOWT2aG-16" source="3nuBFxr9cyL0pnOWT2aG-21">
          <mxGeometry relative="1" as="geometry">
            <mxPoint x="100" y="-12" as="sourcePoint" />
            <mxPoint x="720" y="-23" as="targetPoint" />
            <Array as="points">
              <mxPoint x="310" y="-23" />
            </Array>
          </mxGeometry>
        </mxCell>
        <mxCell id="INr4YLjgiFo9XIjywEUX-52" value="" style="verticalLabelPosition=bottom;verticalAlign=top;html=1;shape=mxgraph.basic.tick;fontFamily=Helvetica;fontSize=12;fontColor=#000000;align=center;strokeColor=#000000;fillColor=#ffffff;" vertex="1" parent="INr4YLjgiFo9XIjywEUX-51">
          <mxGeometry width="20" height="14" relative="1" as="geometry">
            <mxPoint x="-10" y="-7" as="offset" />
          </mxGeometry>
        </mxCell>
        <mxCell id="INr4YLjgiFo9XIjywEUX-17" value="&lt;p style=&quot;margin: 0px ; margin-top: 4px ; text-align: center&quot;&gt;&lt;b&gt;SO Information&lt;/b&gt;&lt;/p&gt;&lt;hr size=&quot;1&quot;&gt;&lt;p style=&quot;margin: 0px ; margin-left: 4px&quot;&gt;+ Qty: 2000&lt;/p&gt;&lt;p style=&quot;margin: 0px ; margin-left: 4px&quot;&gt;&lt;b&gt;+ Sno Range: 1001-3000&lt;/b&gt;&lt;/p&gt;" style="verticalAlign=top;align=left;overflow=fill;fontSize=12;fontFamily=Helvetica;html=1;" vertex="1" parent="3nuBFxr9cyL0pnOWT2aG-16">
          <mxGeometry x="18" y="12.5" width="160" height="90" as="geometry" />
        </mxCell>
        <mxCell id="3nuBFxr9cyL0pnOWT2aG-21" value="&lt;b&gt;Daily Plan&lt;/b&gt;" style="shape=document;whiteSpace=wrap;html=1;boundedLbl=1;" parent="3nuBFxr9cyL0pnOWT2aG-16" vertex="1">
          <mxGeometry x="220" y="27.5" width="90" height="60" as="geometry" />
        </mxCell>
        <mxCell id="INr4YLjgiFo9XIjywEUX-40" value="" style="edgeStyle=orthogonalEdgeStyle;rounded=0;orthogonalLoop=1;jettySize=auto;html=1;exitX=1;exitY=0.5;exitDx=0;exitDy=0;entryX=0;entryY=0.5;entryDx=0;entryDy=0;endArrow=none;" edge="1" parent="3nuBFxr9cyL0pnOWT2aG-16" source="INr4YLjgiFo9XIjywEUX-17" target="3nuBFxr9cyL0pnOWT2aG-21">
          <mxGeometry relative="1" as="geometry">
            <mxPoint x="274" y="298" as="targetPoint" />
            <mxPoint x="48" y="493" as="sourcePoint" />
          </mxGeometry>
        </mxCell>
        <mxCell id="3nuBFxr9cyL0pnOWT2aG-18" value="" style="swimlane;connectable=0;startSize=0;html=1;whiteSpace=wrap;collapsible=0;recursiveResize=0;expand=0;" parent="3nuBFxr9cyL0pnOWT2aG-15" vertex="1">
          <mxGeometry x="409" width="425" height="115" as="geometry">
            <mxRectangle width="425" height="115" as="alternateBounds" />
          </mxGeometry>
        </mxCell>
        <mxCell id="3nuBFxr9cyL0pnOWT2aG-20" value="Transfer to Production" style="rounded=0;whiteSpace=wrap;html=1;" parent="3nuBFxr9cyL0pnOWT2aG-18" vertex="1">
          <mxGeometry x="137" y="20" width="130" height="80" as="geometry" />
        </mxCell>
        <mxCell id="3nuBFxr9cyL0pnOWT2aG-23" value="" style="swimlane;connectable=0;startSize=0;html=1;whiteSpace=wrap;collapsible=0;recursiveResize=0;expand=0;" parent="3nuBFxr9cyL0pnOWT2aG-15" vertex="1">
          <mxGeometry x="834" width="206" height="115" as="geometry">
            <mxRectangle width="206" height="115" as="alternateBounds" />
          </mxGeometry>
        </mxCell>
        <mxCell id="3nuBFxr9cyL0pnOWT2aG-22" value="Naming PCB with label" style="shape=process;whiteSpace=wrap;html=1;backgroundOutline=1;" parent="3nuBFxr9cyL0pnOWT2aG-23" vertex="1">
          <mxGeometry x="66" y="40" width="90" height="40" as="geometry" />
        </mxCell>
        <mxCell id="3nuBFxr9cyL0pnOWT2aG-19" value="" style="edgeStyle=orthogonalEdgeStyle;rounded=0;orthogonalLoop=1;jettySize=auto;html=1;" parent="3nuBFxr9cyL0pnOWT2aG-15" source="3nuBFxr9cyL0pnOWT2aG-20" target="3nuBFxr9cyL0pnOWT2aG-22" edge="1">
          <mxGeometry relative="1" as="geometry" />
        </mxCell>
        <mxCell id="INr4YLjgiFo9XIjywEUX-47" value="" style="endArrow=none;dashed=1;html=1;dashPattern=1 3;strokeWidth=2;entryX=0.489;entryY=0.84;entryDx=0;entryDy=0;entryPerimeter=0;exitX=0.5;exitY=0;exitDx=0;exitDy=0;fontStyle=1" edge="1" parent="3nuBFxr9cyL0pnOWT2aG-15" source="3nuBFxr9cyL0pnOWT2aG-22" target="3nuBFxr9cyL0pnOWT2aG-21">
          <mxGeometry width="50" height="50" relative="1" as="geometry">
            <mxPoint x="820" y="354" as="sourcePoint" />
            <mxPoint x="310" y="270" as="targetPoint" />
            <Array as="points">
              <mxPoint x="945" y="142" />
              <mxPoint x="870" y="142" />
              <mxPoint x="614" y="142" />
              <mxPoint x="304" y="142" />
            </Array>
          </mxGeometry>
        </mxCell>
        <mxCell id="INr4YLjgiFo9XIjywEUX-48" value="Serial range for each SO" style="edgeLabel;html=1;align=center;verticalAlign=middle;resizable=0;points=[];" vertex="1" connectable="0" parent="INr4YLjgiFo9XIjywEUX-47">
          <mxGeometry x="-0.192" y="1" relative="1" as="geometry">
            <mxPoint x="-193" y="-1" as="offset" />
          </mxGeometry>
        </mxCell>
        <mxCell id="INr4YLjgiFo9XIjywEUX-38" style="edgeStyle=orthogonalEdgeStyle;rounded=0;orthogonalLoop=1;jettySize=auto;html=1;entryX=0;entryY=0.5;entryDx=0;entryDy=0;" edge="1" parent="3nuBFxr9cyL0pnOWT2aG-1" source="INr4YLjgiFo9XIjywEUX-16" target="INr4YLjgiFo9XIjywEUX-37">
          <mxGeometry relative="1" as="geometry" />
        </mxCell>
        <mxCell id="INr4YLjgiFo9XIjywEUX-19" style="edgeStyle=orthogonalEdgeStyle;rounded=0;orthogonalLoop=1;jettySize=auto;html=1;exitX=0.5;exitY=1;exitDx=0;exitDy=0;" edge="1" parent="3nuBFxr9cyL0pnOWT2aG-1" source="INr4YLjgiFo9XIjywEUX-37" target="INr4YLjgiFo9XIjywEUX-17">
          <mxGeometry relative="1" as="geometry">
            <mxPoint x="134" y="470" as="targetPoint" />
            <Array as="points">
              <mxPoint x="310" y="450" />
              <mxPoint x="134" y="450" />
            </Array>
          </mxGeometry>
        </mxCell>
        <mxCell id="INr4YLjgiFo9XIjywEUX-41" style="edgeStyle=orthogonalEdgeStyle;rounded=0;orthogonalLoop=1;jettySize=auto;html=1;exitX=0.5;exitY=0;exitDx=0;exitDy=0;entryX=0.5;entryY=1;entryDx=0;entryDy=0;" edge="1" parent="3nuBFxr9cyL0pnOWT2aG-1" source="3nuBFxr9cyL0pnOWT2aG-9" target="3nuBFxr9cyL0pnOWT2aG-10">
          <mxGeometry relative="1" as="geometry">
            <mxPoint x="592" y="210" as="targetPoint" />
          </mxGeometry>
        </mxCell>
        <mxCell id="INr4YLjgiFo9XIjywEUX-43" value="Separate the serial range to each SO" style="edgeStyle=orthogonalEdgeStyle;rounded=0;orthogonalLoop=1;jettySize=auto;html=1;horizontal=0;fontStyle=1" edge="1" parent="3nuBFxr9cyL0pnOWT2aG-1" source="3nuBFxr9cyL0pnOWT2aG-9" target="3nuBFxr9cyL0pnOWT2aG-20">
          <mxGeometry x="-0.1332" relative="1" as="geometry">
            <mxPoint x="602" y="740" as="targetPoint" />
            <Array as="points">
              <mxPoint x="611" y="380" />
              <mxPoint x="754" y="380" />
              <mxPoint x="754" y="668" />
              <mxPoint x="611" y="668" />
            </Array>
            <mxPoint as="offset" />
          </mxGeometry>
        </mxCell>
        <mxCell id="INr4YLjgiFo9XIjywEUX-54" value="" style="endArrow=none;html=1;exitX=0.129;exitY=1.02;exitDx=0;exitDy=0;rounded=0;fillColor=#d5e8d4;strokeColor=#82b366;startArrow=none;startFill=0;endFill=0;exitPerimeter=0;" edge="1" parent="3nuBFxr9cyL0pnOWT2aG-1" source="3nuBFxr9cyL0pnOWT2aG-21">
          <mxGeometry relative="1" as="geometry">
            <mxPoint x="182.99999999999983" y="919.9999999999999" as="sourcePoint" />
            <mxPoint x="923" y="550" as="targetPoint" />
            <Array as="points">
              <mxPoint x="270" y="630" />
              <mxPoint x="923" y="630" />
            </Array>
          </mxGeometry>
        </mxCell>
        <mxCell id="INr4YLjgiFo9XIjywEUX-55" value="" style="verticalLabelPosition=bottom;verticalAlign=top;html=1;shape=mxgraph.basic.tick;fontFamily=Helvetica;fontSize=12;fontColor=#000000;align=center;strokeColor=#000000;fillColor=#ffffff;" vertex="1" parent="INr4YLjgiFo9XIjywEUX-54">
          <mxGeometry width="20" height="14" relative="1" as="geometry">
            <mxPoint x="-10" y="-7" as="offset" />
          </mxGeometry>
        </mxCell>
        <mxCell id="INr4YLjgiFo9XIjywEUX-21" style="edgeStyle=orthogonalEdgeStyle;rounded=0;orthogonalLoop=1;jettySize=auto;html=1;exitX=1;exitY=0.5;exitDx=0;exitDy=0;entryX=0;entryY=0.5;entryDx=0;entryDy=0;startArrow=none;" edge="1" parent="3nuBFxr9cyL0pnOWT2aG-1" source="3nuBFxr9cyL0pnOWT2aG-21" target="3nuBFxr9cyL0pnOWT2aG-9">
          <mxGeometry relative="1" as="geometry">
            <mxPoint x="250" y="360" as="targetPoint" />
          </mxGeometry>
        </mxCell>
        <mxCell id="INr4YLjgiFo9XIjywEUX-56" value="" style="endArrow=none;html=1;exitX=0.75;exitY=0;exitDx=0;exitDy=0;rounded=0;fillColor=#d5e8d4;strokeColor=#82b366;startArrow=none;startFill=0;endFill=0;entryX=0.25;entryY=1;entryDx=0;entryDy=0;" edge="1" parent="3nuBFxr9cyL0pnOWT2aG-1" source="3nuBFxr9cyL0pnOWT2aG-21" target="3nuBFxr9cyL0pnOWT2aG-9">
          <mxGeometry relative="1" as="geometry">
            <mxPoint x="-228.99999999999977" y="1558" as="sourcePoint" />
            <mxPoint x="191" y="1757" as="targetPoint" />
            <Array as="points">
              <mxPoint x="328" y="423" />
              <mxPoint x="560" y="423" />
            </Array>
          </mxGeometry>
        </mxCell>
        <mxCell id="INr4YLjgiFo9XIjywEUX-57" value="" style="verticalLabelPosition=bottom;verticalAlign=top;html=1;shape=mxgraph.basic.tick;fontFamily=Helvetica;fontSize=12;fontColor=#000000;align=center;strokeColor=#000000;fillColor=#ffffff;" vertex="1" parent="INr4YLjgiFo9XIjywEUX-56">
          <mxGeometry width="20" height="14" relative="1" as="geometry">
            <mxPoint x="-10" y="-7" as="offset" />
          </mxGeometry>
        </mxCell>
        <mxCell id="3nuBFxr9cyL0pnOWT2aG-6" value="Start" style="rounded=1;whiteSpace=wrap;html=1;arcSize=50;" parent="1" vertex="1">
          <mxGeometry x="-1011" y="50" width="90" height="40" as="geometry" />
        </mxCell>
        <mxCell id="3nuBFxr9cyL0pnOWT2aG-5" style="edgeStyle=orthogonalEdgeStyle;rounded=0;orthogonalLoop=1;jettySize=auto;html=1;" parent="1" source="3nuBFxr9cyL0pnOWT2aG-6" target="3nuBFxr9cyL0pnOWT2aG-7" edge="1">
          <mxGeometry relative="1" as="geometry" />
        </mxCell>
      </root>
    </mxGraphModel>
  </diagram>
</mxfile>
